<svg height="19" viewBox="0 0 100 21" fill="#595959" xmlns="http://www.w3.org/2000/svg">
    <path d="M11.916 9.125c.473.937.71 2.036.71 3.298v8.282H9.933v-8.282c0-.729-.145-1.365-.435-1.908a3.042 3.042 0 0 0-1.187-1.243c-.502-.286-1.082-.429-1.737-.429-.735 0-1.395.173-1.984.518a3.654 3.654 0 0 0-1.39 1.464c-.337.631-.507 1.351-.507 2.16v7.72H0V0h2.693v8.607h.029c.366-.61.945-1.163 1.738-1.656a4.888 4.888 0 0 1 2.635-.74c1.08 0 2.036.25 2.867.754.83.503 1.481 1.223 1.954 2.16zm17.218 9.242c.213 0 .416-.048.609-.147v2.455c-.097.079-.265.152-.507.222a2.591 2.591 0 0 1-.71.103c-.676 0-1.236-.143-1.68-.429-.444-.286-.778-.626-.998-1.02-.202-.358-.31-.683-.33-.976h-.06c-.213.395-.542.774-.986 1.139-.444.365-.994.67-1.65.917a6.05 6.05 0 0 1-2.143.369c-.888 0-1.684-.188-2.388-.562a4.21 4.21 0 0 1-1.65-1.523 3.844 3.844 0 0 1-.595-2.056c0-1.163.377-2.134 1.13-2.913.753-.779 1.814-1.287 3.186-1.523l4.864-.84v-.106c0-.513-.13-.98-.391-1.405a2.805 2.805 0 0 0-1.071-1.006c-.454-.246-.97-.37-1.55-.37-.791 0-1.496.193-2.114.577a6.937 6.937 0 0 0-1.592 1.345L16.77 8.904c.366-.454.81-.882 1.332-1.288A7.02 7.02 0 0 1 19.94 6.61a6.382 6.382 0 0 1 2.273-.4c1.12 0 2.11.238 2.968.71a5.134 5.134 0 0 1 2.012 1.968c.482.838.725 1.77.725 2.795v5.442c0 .395.105.7.318.917.213.217.512.325.897.325zm-3.909-4.582-4.199.767c-.734.138-1.299.39-1.694.754-.395.366-.593.795-.593 1.287 0 .375.096.716.29 1.02.192.307.482.558.869.754.385.198.82.297 1.303.297.734 0 1.41-.187 2.027-.563a4.037 4.037 0 0 0 1.462-1.538c.358-.65.536-1.38.536-2.188v-.59zm15.06-4.779c.191.03.365.064.52.103V6.211h-.723c-.637 0-1.241.114-1.81.34a4.836 4.836 0 0 0-1.463.888 5.582 5.582 0 0 0-.955 1.08h-.058V6.506h-2.693v14.197h2.693v-7.305c0-.848.174-1.613.52-2.293.349-.68.821-1.207 1.42-1.582a3.642 3.642 0 0 1 1.97-.562c.191 0 .385.015.578.044zm22.288-2.041a4.573 4.573 0 0 0-2.548-.754c-.81 0-1.54.129-2.186.384-.647.257-1.187.573-1.622.947-.434.375-.748.76-.94 1.154h-.058c-.194-.394-.497-.779-.913-1.154a5.52 5.52 0 0 0-1.505-.947 4.783 4.783 0 0 0-1.926-.384c-.966 0-1.815.246-2.548.74-.734.492-1.245 1.045-1.534 1.656h-.029V6.508h-2.693v14.197h2.693v-7.868c0-.808.15-1.512.45-2.114.298-.601.709-1.065 1.23-1.39a3.267 3.267 0 0 1 1.766-.488c.56 0 1.067.134 1.52.4.455.266.816.66 1.087 1.183.27.522.405 1.138.405 1.848v8.43h2.722v-7.898c0-.788.144-1.483.434-2.085.29-.601.695-1.065 1.216-1.39a3.267 3.267 0 0 1 1.767-.488c.56 0 1.071.134 1.534.4.463.266.83.66 1.1 1.183.27.522.405 1.138.405 1.848v8.43h2.693v-8.43c0-1.202-.227-2.263-.68-3.18-.455-.917-1.068-1.628-1.84-2.131zm6.216 10.382c-.628-1.133-.94-2.381-.94-3.742 0-1.36.313-2.607.94-3.742a6.942 6.942 0 0 1 2.606-2.676 7.059 7.059 0 0 1 3.634-.976c1.312 0 2.524.325 3.634.976a6.935 6.935 0 0 1 2.606 2.676c.626 1.134.94 2.382.94 3.742 0 1.36-.314 2.609-.94 3.742a6.948 6.948 0 0 1-2.606 2.677 7.059 7.059 0 0 1-3.634.976 7.054 7.054 0 0 1-3.634-.976 6.935 6.935 0 0 1-2.606-2.677zm1.752-3.742c0 .908.193 1.727.579 2.455a4.19 4.19 0 0 0 1.621 1.701 4.468 4.468 0 0 0 2.289.606 4.47 4.47 0 0 0 2.287-.606 4.196 4.196 0 0 0 1.622-1.7c.386-.73.579-1.548.579-2.456 0-.906-.193-1.725-.58-2.454a4.196 4.196 0 0 0-1.621-1.701 4.47 4.47 0 0 0-2.287-.607c-.83 0-1.593.203-2.289.607a4.196 4.196 0 0 0-1.621 1.7c-.386.73-.58 1.55-.58 2.455zm24.176-6.64c-.83-.503-1.785-.754-2.866-.754a4.88 4.88 0 0 0-2.635.74c-.792.492-1.37 1.045-1.738 1.656h-.029V6.508h-2.693v14.197h2.693v-7.72c0-.809.169-1.528.508-2.16.337-.63.8-1.119 1.39-1.464a3.85 3.85 0 0 1 1.983-.518c.656 0 1.235.143 1.738.43.502.285.897.7 1.187 1.242.29.543.435 1.178.435 1.908v8.282h2.693v-8.282c0-1.262-.236-2.361-.71-3.298-.475-.937-1.125-1.657-1.956-2.16zm4.542 12.213c.413 0 .741.344.741.766a.75.75 0 0 1-.741.764.749.749 0 0 1-.74-.764c0-.421.327-.766.74-.766zm0 1.395c.34 0 .61-.281.61-.63a.619.619 0 0 0-.61-.632.62.62 0 0 0-.61.632c0 .349.269.63.61.63zm.114-.519c.114-.03.163-.134.163-.238 0-.125-.078-.25-.241-.25h-.29v.763h.146v-.264h.05l.186.264h.178l-.192-.275zm-.078-.342c.062 0 .097.05.097.103a.098.098 0 0 1-.1.102h-.14v-.206h.143z" fill-rule="nonzero"/>
</svg>
