<svg viewBox="0 0 100 21" xmlns="http://www.w3.org/2000/svg" class="crossSiteBanner_child__oCu60"><path d="M0 10.333v10.334h2.642l.054-4.459.054-4.458.518-.917c1.009-1.787 3.027-2.469 4.767-1.61.541.266 1.043.673 1.298 1.052l.417.616.049 4.888.049 4.888H12.693l-.061-4.959c-.057-4.672-.083-5.012-.436-5.9-.59-1.484-1.369-2.375-2.61-2.986-.929-.457-1.265-.534-2.376-.539-1.59-.008-2.507.358-3.705 1.478l-.838.785V0H0v10.333m20.833-3.934c-1.159.258-2.372.893-3.333 1.746l-.75.666.859.868.86.869.724-.587c1.16-.94 1.773-1.186 2.986-1.199.919-.01 1.203.059 1.765.431.7.464 1.223 1.323 1.223 2.01 0 .391-.085.418-2.708.872-1.489.258-2.99.568-3.335.69-3.18 1.122-4.1 4.611-1.816 6.891 1.012 1.01 2.235 1.421 3.878 1.304 1.397-.1 3.068-.858 3.771-1.71l.468-.568.373.7c.205.386.637.881.959 1.101.67.457 1.93.635 2.618.369.44-.17.458-.225.458-1.348v-1.171h-.641c-1.117 0-1.153-.12-1.229-4.166-.062-3.259-.103-3.673-.454-4.568-.691-1.763-2.199-2.933-4.197-3.258-1.263-.204-1.306-.204-2.479.058m18.191-.053c-.931.183-2.005.815-2.668 1.57l-.523.596V6.5H33v14.167H35.813l.052-4.375.052-4.375.517-.917c.725-1.284 1.719-1.886 3.254-1.973l1.145-.065V6.167l-.541.018c-.298.01-.868.082-1.268.161m10.864-.01c-.961.196-1.625.568-2.397 1.34l-.658.657V6.5H44v14.167h2.833v-4.506c0-4.901.055-5.25.968-6.224.574-.612 1.619-1.096 2.366-1.096.679 0 1.792.471 2.202.933.734.828.798 1.32.798 6.221v4.672h2.814l.051-4.709.051-4.708.456-.776c.339-.575.68-.887 1.325-1.208.992-.494 1.715-.544 2.594-.176.826.345 1.198.7 1.562 1.493.274.597.306 1.164.31 5.375l.003 4.709h2.834l-.001-4.292c-.001-2.36-.073-4.728-.16-5.262-.336-2.05-1.396-3.624-2.956-4.387-.778-.38-1.139-.452-2.241-.445-1.129.007-1.464.083-2.393.54-.615.303-1.312.808-1.617 1.172l-.537.639-.637-.723c-1.114-1.266-3.068-1.915-4.737-1.573m23.968.001c-1.322.194-3.2 1.185-4.029 2.125-4.468 5.066-.856 12.942 5.729 12.49 5.189-.355 8.221-6.154 5.752-11.001-1.293-2.539-4.429-4.06-7.452-3.614m17.061-.016c-.89.146-2.325.947-2.928 1.634l-.489.557V6.5h-2.833v14.167H87.5l.004-4.375c.003-4.043.029-4.432.343-5.125.693-1.528 1.791-2.235 3.486-2.244 1.312-.008 2.015.348 2.748 1.391l.502.714.051 4.819.051 4.82h2.666l-.05-5.125-.051-5.125-.481-1.042c-.544-1.178-1.596-2.248-2.656-2.703-.813-.349-2.248-.506-3.196-.351M77.175 9.437c.876.477 1.37 1.006 1.925 2.063.411.782.418 3.299.012 4.202-1.571 3.493-6.6 3.504-8.142.018-.403-.91-.474-2.646-.153-3.763.255-.892 1.276-2.157 2.077-2.574a4.58 4.58 0 0 1 4.281.054m-52.01 5.188c-.002.977-.583 2.26-1.354 2.993-1.846 1.754-4.978 1.137-4.978-.98 0-1.346.667-1.768 3.75-2.376 2.768-.546 2.584-.572 2.582.363m73.597 4.804c-.503.503-.214 1.238.488 1.238s.991-.735.488-1.238c-.144-.144-.364-.262-.488-.262s-.344.118-.488.262m.898.146c.347.419.141.842-.41.842-.344 0-.513-.092-.553-.3-.066-.344.244-.784.553-.784.115 0 .3.109.41.242m-.647.356c-.008.203.091.347.237.347.143 0 .249-.149.247-.347-.001-.26-.038-.29-.146-.12-.122.191-.158.191-.234 0-.055-.139-.096-.092-.104.12" fill="#fff" fill-rule="evenodd"/></svg>