<svg xmlns="http://www.w3.org/2000/svg" viewBox="0 0 373.4 55.8" id="buybuyBaby"><path fill="#595959" d="M26.4 26.8a12.36 12.36 0 00-1.2-6.1 4.54 4.54 0 00-3.7-2.6c-2.3 0-5.5 2.3-5.5 8.8 0 5.9 2.3 8.3 5.4 8.3 2.9.1 5-2.5 5-8.4m-20.6-15c0-3.1-.1-4.4-1.1-4.4-.6 0-1.2.4-2 .4C.7 7.8 0 6.1 0 4.3 0 1.9 1 0 3.6 0c1.6 0 3.3.6 4.9.6 1.8 0 3.6-.6 5.4-.6 1.5 0 2 .9 2 3.3v10.6h.1a10 10 0 018.5-4.1c8.8 0 12 9 12 16.5 0 8.4-3.9 17.3-13.5 17.3-4.1 0-7.7-1.5-9.9-5.6l-.1.1.2 1.5c0 2-1.7 2.9-3.4 2.9-3.3 0-3.9-1.5-3.9-4.5l-.1-26.2z"></path><path fill="#595959" d="M48.9 28.8a11 11 0 00.7 4.7 4 4 0 003.4 1.9 5.11 5.11 0 004.4-2.5c1.3-2 1.4-4.1 1.4-6.3v-4.2c0-3.3-.2-4.3-1.1-4.3a2.92 2.92 0 00-.9.2 4.25 4.25 0 01-1.1.2c-2 0-2.7-1.7-2.7-3.5 0-2.3 1-4.2 3.7-4.2 2 0 3.4.6 5.4.6 1.7 0 2.8-.6 4.4-.6s2 .7 2 2v18.4c0 3.7.4 4.3 1.1 4.3s1.2-.4 2-.4c2 0 2.7 1.7 2.7 3.5 0 2.3-1 4.2-3.6 4.2-1.5 0-2.9-.6-4.4-.6s-2.7.6-3.9.6a2 2 0 01-2.2-2v-2.5h-.1c-2.3 3.4-6.7 5.3-10.8 5.3-6.3 0-10.1-3.7-10.1-9.9V22.3c0-3.7-.4-4.3-1.1-4.3a2.92 2.92 0 00-.9.2 4.25 4.25 0 01-1.1.2c-2 0-2.7-1.7-2.7-3.5 0-2.3 1-4.2 3.9-4.2 2 0 3.6.6 5.6.6s2.8-.6 4.4-.6 1.6 1.2 1.6 2.8v15.3z"></path><path fill="#595959" d="M94.9 35.8c-3.2 8.8-8.3 20-19.2 20-4.7 0-10.4-2.3-10.4-7.7a5.29 5.29 0 015.4-5.3 4.23 4.23 0 014.2 4.2 5.85 5.85 0 01-.2 1.3 2.69 2.69 0 001.5.5c2.1 0 4.9-3.4 4.9-5.4 0-1.5-1.7-5.6-2.4-7.2l-6.2-14.7c-1-2.6-1.4-3.1-2.2-3.1-.5 0-.9.1-1.4.1-2 0-2.7-1.7-2.7-3.5 0-2.3 1-4.2 3.6-4.2 1.8 0 3.9.6 6 .6s4.4-.6 6.7-.6 3.6 1.4 3.6 3.7a2.48 2.48 0 01-2 2.8c-1 .2-2 .2-2 1.3a16.84 16.84 0 00.6 2.4l4 12.4h.1l4-11.8a11.14 11.14 0 00.8-3c0-.7-.9-.8-1.7-1.2a2.73 2.73 0 01-1.8-2.9 3.32 3.32 0 013.2-3.6c1.7 0 3.6.6 5.5.6 2.1 0 4.1-.6 6.3-.6 2.6 0 3.6 1.9 3.6 4.2 0 1.8-.7 3.5-2.7 3.5-.6 0-1.1-.2-1.7-.2s-1.2.4-2.1 2.9z"></path><path fill="#595959" d="M129 26.8a12.36 12.36 0 00-1.2-6.1 4.54 4.54 0 00-3.7-2.6c-2.3 0-5.5 2.3-5.5 8.8 0 5.9 2.3 8.3 5.4 8.3 2.9.1 5-2.5 5-8.4m-20.6-15c0-3.1-.1-4.4-1.1-4.4-.6 0-1.2.4-2 .4-2 0-2.7-1.7-2.7-3.5 0-2.4 1-4.3 3.6-4.3 1.6 0 3.3.6 4.9.6 1.8 0 3.6-.6 5.4-.6 1.5 0 2 .9 2 3.3v10.6h.1a10 10 0 018.5-4.1c8.8 0 12 9 12 16.5 0 8.4-3.9 17.3-13.5 17.3-4.1 0-7.7-1.5-9.9-5.6l-.1.1.2 1.5c0 2-1.7 2.9-3.4 2.9-3.3 0-3.9-1.5-3.9-4.5V11.8z"></path><path fill="#595959" d="M151.5 28.8a11 11 0 00.7 4.7 4 4 0 003.4 1.9 5.11 5.11 0 004.4-2.5c1.3-2 1.4-4.1 1.4-6.3v-4.2c0-3.3-.2-4.3-1.1-4.3a2.92 2.92 0 00-.9.2 4.25 4.25 0 01-1.1.2c-2 0-2.7-1.7-2.7-3.5 0-2.3 1-4.2 3.7-4.2 2 0 3.4.6 5.4.6 1.7 0 2.8-.6 4.4-.6s2 .7 2 2v18.4c0 3.7.4 4.3 1.1 4.3s1.2-.4 2-.4c2 0 2.7 1.7 2.7 3.5 0 2.3-1 4.2-3.6 4.2-1.5 0-2.9-.6-4.4-.6-1.3 0-2.7.6-3.9.6a2 2 0 01-2.2-2v-2.5h-.1c-2.3 3.4-6.7 5.3-10.8 5.3-6.3 0-10.1-3.7-10.1-9.9V22.3c0-3.7-.4-4.3-1.1-4.3a2.92 2.92 0 00-.9.2 4.25 4.25 0 01-1.1.2c-2 0-2.7-1.7-2.7-3.5 0-2.3 1-4.2 3.9-4.2 2 0 3.6.6 5.6.6s2.8-.6 4.4-.6 1.6 1.2 1.6 2.8v15.3z"></path><path fill="#595959" d="M197.5 35.8c-3.2 8.8-8.3 20-19.2 20-4.7 0-10.4-2.3-10.4-7.7a5.29 5.29 0 015.4-5.3 4.23 4.23 0 014.2 4.2 5.85 5.85 0 01-.2 1.3 2.69 2.69 0 001.5.5c2.1 0 4.9-3.4 4.9-5.4 0-1.5-1.7-5.6-2.4-7.2l-6.2-14.7c-1-2.6-1.4-3.1-2.2-3.1-.5 0-.9.1-1.4.1-2 0-2.7-1.7-2.7-3.5 0-2.3 1-4.2 3.6-4.2 1.8 0 3.9.6 6 .6s4.4-.6 6.7-.6 3.6 1.4 3.6 3.7a2.48 2.48 0 01-2 2.8c-1 .2-2 .2-2 1.3a16.84 16.84 0 00.6 2.4l4 12.4h.1l4-11.8a11.14 11.14 0 00.8-3c0-.7-.9-.8-1.7-1.2a2.73 2.73 0 01-1.8-2.9 3.32 3.32 0 013.2-3.6c1.7 0 3.6.6 5.5.6 2.1 0 4.1-.6 6.3-.6 2.6 0 3.6 1.9 3.6 4.2 0 1.8-.7 3.5-2.7 3.5-.6 0-1.1-.2-1.7-.2s-1.2.4-2.1 2.9z"></path><path fill="#595959" d="M225.6 31.1c0 2.6 1.3 3.6 6.1 3.6 3.1 0 6.4-1.5 6.4-4.9 0-4.1-4.6-5.7-9.4-5.7-3 0-3.1.1-3.1 2.6zm0-16.2c0 1.5.4 1.5 2.9 1.5 5.2 0 8-1.3 8-4.5s-4-4.1-6.6-4.1c-4.1 0-4.4.8-4.4 3.7v3.4zm-11.4-1.5c0-4-.4-5-1.5-5s-1.8.4-2.8.4c-2.1 0-3.2-2.3-3.2-4.1 0-2.6 1.5-4.7 6.9-4.7 2.8 0 5.3.6 8.3.6 5.3 0 8.8-.6 12.2-.6a18.3 18.3 0 018.8 1.8 9.6 9.6 0 015.2 8.7c0 4.7-3.3 7.9-7.7 8.6v.1c5.9 1.4 9.4 5 9.4 10.8 0 10.3-9.3 12.7-16.6 12.7-3.4 0-6.4-.6-11.4-.6-3.6 0-5.7.6-8.5.6-5.2 0-6.7-2-6.7-4.7 0-1.8 1.1-4.1 3.2-4.1.9 0 1.8.4 2.8.4 1.2 0 1.5-1.2 1.5-5V13.4z"></path><path fill="#595959" d="M267.4 19.9a1.45 1.45 0 00-.2.7c0 .5.7.8 2.3.8h1.7c2.2 0 2.7-.2 2.7-.9a12.23 12.23 0 00-.3-1.7l-2.5-11.4h-.1zm0 9.5c-2.6-.1-3 .2-3.4.7a9.54 9.54 0 00-.9 3.3 1.06 1.06 0 001.2 1.2c.5 0 .7.1 1 .1 1.3 0 3 .9 3 4.2a3.91 3.91 0 01-4.1 4c-2.6 0-4.5-.6-7.3-.6s-5.3.6-8 .6a4 4 0 01-4.1-4.3c0-3.1 1.5-4.5 3-4.5.7 0 1.4.1 2.1.1 1.9 0 2.6-2.9 3.1-4.4l8.4-23.1C263.7.5 264.3 0 271 0c2.9 0 5.3 0 6.6.7 1.6.9 1.8 1.6 2.6 4.4l7.5 25.1c.8 2.6 1.2 3.9 2.4 3.9.7 0 1.3-.1 1.8-.1 1.5 0 3 1.2 3 4.5a4.07 4.07 0 01-4.2 4.3c-2.6 0-4.5-.6-7.3-.6s-5.3.6-8 .6a3.91 3.91 0 01-4.1-4c0-2.6 1.3-4.2 3-4.2.3 0 .7.1 1.2.1.9 0 1.4-.4 1.4-1.3a4.25 4.25 0 00-.2-1.1 8.78 8.78 0 00-.7-2.3c-.4-.6-1-.6-1.9-.6h-6.7z"></path><path fill="#595959" d="M307.8 31.1c0 2.6 1.3 3.6 6.1 3.6 3.1 0 6.4-1.5 6.4-4.9 0-4.1-4.6-5.7-9.4-5.7-3 0-3.1.1-3.1 2.6zm0-16.2c0 1.5.4 1.5 2.9 1.5 5.2 0 8-1.3 8-4.5s-4.1-4.1-6.6-4.1c-4 0-4.4.8-4.4 3.7v3.4zm-11.3-1.5c0-4-.4-5-1.5-5s-1.8.4-2.8.4c-2.1 0-3.2-2.3-3.2-4.1 0-2.6 1.5-4.7 6.9-4.7 2.8 0 5.3.6 8.4.6 5.3 0 8.8-.6 12.2-.6a18.3 18.3 0 018.8 1.8 9.6 9.6 0 015.2 8.7c0 4.7-3.3 7.9-7.7 8.6v.1c5.9 1.4 9.4 5 9.4 10.8 0 10.3-9.3 12.7-16.6 12.7-3.4 0-6.4-.6-11.4-.6-3.6 0-5.7.6-8.5.6-5.2 0-6.7-2-6.7-4.7 0-1.8 1.1-4.1 3.2-4.1.9 0 1.8.4 2.8.4 1.2 0 1.5-1.2 1.5-5V13.4z"></path><path fill="#595959" d="M349.2 18.3l3.4-6.1c.8-1.4 1.4-2.3 1.4-3.2 0-1.8-2.7-.7-2.7-4.4 0-2.8 1.6-4.5 3.5-4.5 2.5 0 5 .6 7.5.6s4.3-.6 6.8-.6c2.8 0 4.3 2 4.3 4.7 0 1.8-1.1 4.1-3.2 4.1-.9 0-1.7-.3-2.5-.3a1.9 1.9 0 00-1.7.7 29.77 29.77 0 00-2 2.9l-7.6 12c-1.5 2.5-2 3.4-2 4.4v3.6a2 2 0 002.1 2.2c1.2 0 2.4-.4 3.6-.4 2.1 0 3.2 2.3 3.2 4.1 0 2.6-1.5 4.7-4.3 4.7-3.1 0-5.2-.6-8.5-.6-3.1 0-6.2.6-9.3.6-4.6 0-6.1-2-6.1-4.7 0-1.8 1.1-4.1 3.2-4.1 1.2 0 2.4.4 3.6.4 1 0 1.7-.6 1.7-2.3v-2.4c-.1-2.1-.5-2.7-2-5.2l-7.1-11.7a32.57 32.57 0 00-2.2-3.4 2.06 2.06 0 00-1.8-.8c-.9 0-1.6.2-2.5.2-2.1 0-3.2-2.3-3.2-4.1 0-2.6 1.5-4.7 4.6-4.7 2.5 0 5 .6 7.5.6 2.3 0 4.3-.6 6.8-.6 2.8 0 4.1 2.2 4.1 4.9 0 3.3-2.9 2.4-2.9 4.1 0 .7.4 1.5 1.3 3.2zM368.4 34a4.24 4.24 0 013 7.2 4.16 4.16 0 01-3 1.3 3.8 3.8 0 01-3-1.3 4.16 4.16 0 01-1.3-3 4.07 4.07 0 011.2-3 4.47 4.47 0 013.1-1.2m0 8a3.76 3.76 0 10-2.6-1.1 3.47 3.47 0 002.6 1.1m1.8-4.9c0 .5-.3.8-.9 1q.9.15.9.9v.3c0 .2 0 .3.1.3h.2c.2 0 .3.1.3.4a.47.47 0 01-.5.5h-.2a.31.31 0 00-.2-.1.37.37 0 00-.3.1h-.2c-.3 0-.5-.2-.5-.7v-.5c0-.4-.3-.6-.8-.6a.27.27 0 00-.3.3v.1c0 .3.1.4.2.4h.3c.2 0 .3.1.3.4a.47.47 0 01-.5.5h-.4a4.33 4.33 0 01-.5-.1 1.34 1.34 0 00-.5.1h-.5a.47.47 0 01-.5-.5c0-.3.1-.4.3-.4h.4c.1 0 .1-.1.1-.4v-1.8c0-.3-.1-.4-.2-.4h-.4c-.2 0-.3-.1-.3-.4s.1-.5.4-.5h2.6c1.2 0 1.6.3 1.6 1.1m-1.8-.3c-.2 0-.3 0-.4.1a.35.35 0 00-.1.2v.4a.27.27 0 00.3.3c.5 0 .8-.2.8-.5s-.2-.5-.6-.5m-342-10a12.36 12.36 0 00-1.2-6.1 4.54 4.54 0 00-3.7-2.6c-2.3 0-5.5 2.3-5.5 8.8 0 5.9 2.3 8.3 5.4 8.3 2.9.1 5-2.5 5-8.4m-20.6-15c0-3.1-.1-4.4-1.1-4.4-.6 0-1.2.4-2 .4C.7 7.8 0 6.1 0 4.3 0 1.9 1 0 3.6 0c1.6 0 3.3.6 4.9.6 1.8 0 3.6-.6 5.4-.6 1.5 0 2 .9 2 3.3v10.6h.1a10 10 0 018.5-4.1c8.8 0 12 9 12 16.5 0 8.4-3.9 17.3-13.5 17.3-4.1 0-7.7-1.5-9.9-5.6l-.1.1.2 1.5c0 2-1.7 2.9-3.4 2.9-3.3 0-3.9-1.5-3.9-4.5l-.1-26.2z"></path><path fill="#595959" d="M48.9 28.8a11 11 0 00.7 4.7 4 4 0 003.4 1.9 5.11 5.11 0 004.4-2.5c1.3-2 1.4-4.1 1.4-6.3v-4.2c0-3.3-.2-4.3-1.1-4.3a2.92 2.92 0 00-.9.2 4.25 4.25 0 01-1.1.2c-2 0-2.7-1.7-2.7-3.5 0-2.3 1-4.2 3.7-4.2 2 0 3.4.6 5.4.6 1.7 0 2.8-.6 4.4-.6s2 .7 2 2v18.4c0 3.7.4 4.3 1.1 4.3s1.2-.4 2-.4c2 0 2.7 1.7 2.7 3.5 0 2.3-1 4.2-3.6 4.2-1.5 0-2.9-.6-4.4-.6s-2.7.6-3.9.6a2 2 0 01-2.2-2v-2.5h-.1c-2.3 3.4-6.7 5.3-10.8 5.3-6.3 0-10.1-3.7-10.1-9.9V22.3c0-3.7-.4-4.3-1.1-4.3a2.92 2.92 0 00-.9.2 4.25 4.25 0 01-1.1.2c-2 0-2.7-1.7-2.7-3.5 0-2.3 1-4.2 3.9-4.2 2 0 3.6.6 5.6.6s2.8-.6 4.4-.6 1.6 1.2 1.6 2.8v15.3z"></path><path fill="#595959" d="M94.9 35.8c-3.2 8.8-8.3 20-19.2 20-4.7 0-10.4-2.3-10.4-7.7a5.29 5.29 0 015.4-5.3 4.23 4.23 0 014.2 4.2 5.85 5.85 0 01-.2 1.3 2.69 2.69 0 001.5.5c2.1 0 4.9-3.4 4.9-5.4 0-1.5-1.7-5.6-2.4-7.2l-6.2-14.7c-1-2.6-1.4-3.1-2.2-3.1-.5 0-.9.1-1.4.1-2 0-2.7-1.7-2.7-3.5 0-2.3 1-4.2 3.6-4.2 1.8 0 3.9.6 6 .6s4.4-.6 6.7-.6 3.6 1.4 3.6 3.7a2.48 2.48 0 01-2 2.8c-1 .2-2 .2-2 1.3a16.84 16.84 0 00.6 2.4l4 12.4h.1l4-11.8a11.14 11.14 0 00.8-3c0-.7-.9-.8-1.7-1.2a2.73 2.73 0 01-1.8-2.9 3.32 3.32 0 013.2-3.6c1.7 0 3.6.6 5.5.6 2.1 0 4.1-.6 6.3-.6 2.6 0 3.6 1.9 3.6 4.2 0 1.8-.7 3.5-2.7 3.5-.6 0-1.1-.2-1.7-.2s-1.2.4-2.1 2.9z"></path><path fill="#595959" d="M129 26.8a12.36 12.36 0 00-1.2-6.1 4.54 4.54 0 00-3.7-2.6c-2.3 0-5.5 2.3-5.5 8.8 0 5.9 2.3 8.3 5.4 8.3 2.9.1 5-2.5 5-8.4m-20.6-15c0-3.1-.1-4.4-1.1-4.4-.6 0-1.2.4-2 .4-2 0-2.7-1.7-2.7-3.5 0-2.4 1-4.3 3.6-4.3 1.6 0 3.3.6 4.9.6 1.8 0 3.6-.6 5.4-.6 1.5 0 2 .9 2 3.3v10.6h.1a10 10 0 018.5-4.1c8.8 0 12 9 12 16.5 0 8.4-3.9 17.3-13.5 17.3-4.1 0-7.7-1.5-9.9-5.6l-.1.1.2 1.5c0 2-1.7 2.9-3.4 2.9-3.3 0-3.9-1.5-3.9-4.5V11.8z"></path><path fill="#595959" d="M151.5 28.8a11 11 0 00.7 4.7 4 4 0 003.4 1.9 5.11 5.11 0 004.4-2.5c1.3-2 1.4-4.1 1.4-6.3v-4.2c0-3.3-.2-4.3-1.1-4.3a2.92 2.92 0 00-.9.2 4.25 4.25 0 01-1.1.2c-2 0-2.7-1.7-2.7-3.5 0-2.3 1-4.2 3.7-4.2 2 0 3.4.6 5.4.6 1.7 0 2.8-.6 4.4-.6s2 .7 2 2v18.4c0 3.7.4 4.3 1.1 4.3s1.2-.4 2-.4c2 0 2.7 1.7 2.7 3.5 0 2.3-1 4.2-3.6 4.2-1.5 0-2.9-.6-4.4-.6-1.3 0-2.7.6-3.9.6a2 2 0 01-2.2-2v-2.5h-.1c-2.3 3.4-6.7 5.3-10.8 5.3-6.3 0-10.1-3.7-10.1-9.9V22.3c0-3.7-.4-4.3-1.1-4.3a2.92 2.92 0 00-.9.2 4.25 4.25 0 01-1.1.2c-2 0-2.7-1.7-2.7-3.5 0-2.3 1-4.2 3.9-4.2 2 0 3.6.6 5.6.6s2.8-.6 4.4-.6 1.6 1.2 1.6 2.8v15.3z"></path><path fill="#595959" d="M197.5 35.8c-3.2 8.8-8.3 20-19.2 20-4.7 0-10.4-2.3-10.4-7.7a5.29 5.29 0 015.4-5.3 4.23 4.23 0 014.2 4.2 5.85 5.85 0 01-.2 1.3 2.69 2.69 0 001.5.5c2.1 0 4.9-3.4 4.9-5.4 0-1.5-1.7-5.6-2.4-7.2l-6.2-14.7c-1-2.6-1.4-3.1-2.2-3.1-.5 0-.9.1-1.4.1-2 0-2.7-1.7-2.7-3.5 0-2.3 1-4.2 3.6-4.2 1.8 0 3.9.6 6 .6s4.4-.6 6.7-.6 3.6 1.4 3.6 3.7a2.48 2.48 0 01-2 2.8c-1 .2-2 .2-2 1.3a16.84 16.84 0 00.6 2.4l4 12.4h.1l4-11.8a11.14 11.14 0 00.8-3c0-.7-.9-.8-1.7-1.2a2.73 2.73 0 01-1.8-2.9 3.32 3.32 0 013.2-3.6c1.7 0 3.6.6 5.5.6 2.1 0 4.1-.6 6.3-.6 2.6 0 3.6 1.9 3.6 4.2 0 1.8-.7 3.5-2.7 3.5-.6 0-1.1-.2-1.7-.2s-1.2.4-2.1 2.9z"></path><path fill="#595959" d="M225.6 31.1c0 2.6 1.3 3.6 6.1 3.6 3.1 0 6.4-1.5 6.4-4.9 0-4.1-4.6-5.7-9.4-5.7-3 0-3.1.1-3.1 2.6zm0-16.2c0 1.5.4 1.5 2.9 1.5 5.2 0 8-1.3 8-4.5s-4-4.1-6.6-4.1c-4.1 0-4.4.8-4.4 3.7v3.4zm-11.4-1.5c0-4-.4-5-1.5-5s-1.8.4-2.8.4c-2.1 0-3.2-2.3-3.2-4.1 0-2.6 1.5-4.7 6.9-4.7 2.8 0 5.3.6 8.3.6 5.3 0 8.8-.6 12.2-.6a18.3 18.3 0 018.8 1.8 9.6 9.6 0 015.2 8.7c0 4.7-3.3 7.9-7.7 8.6v.1c5.9 1.4 9.4 5 9.4 10.8 0 10.3-9.3 12.7-16.6 12.7-3.4 0-6.4-.6-11.4-.6-3.6 0-5.7.6-8.5.6-5.2 0-6.7-2-6.7-4.7 0-1.8 1.1-4.1 3.2-4.1.9 0 1.8.4 2.8.4 1.2 0 1.5-1.2 1.5-5V13.4z"></path><path fill="#595959" d="M267.4 19.9a1.45 1.45 0 00-.2.7c0 .5.7.8 2.3.8h1.7c2.2 0 2.7-.2 2.7-.9a12.23 12.23 0 00-.3-1.7l-2.5-11.4h-.1zm0 9.5c-2.6-.1-3 .2-3.4.7a9.54 9.54 0 00-.9 3.3 1.06 1.06 0 001.2 1.2c.5 0 .7.1 1 .1 1.3 0 3 .9 3 4.2a3.91 3.91 0 01-4.1 4c-2.6 0-4.5-.6-7.3-.6s-5.3.6-8 .6a4 4 0 01-4.1-4.3c0-3.1 1.5-4.5 3-4.5.7 0 1.4.1 2.1.1 1.9 0 2.6-2.9 3.1-4.4l8.4-23.1C263.7.5 264.3 0 271 0c2.9 0 5.3 0 6.6.7 1.6.9 1.8 1.6 2.6 4.4l7.5 25.1c.8 2.6 1.2 3.9 2.4 3.9.7 0 1.3-.1 1.8-.1 1.5 0 3 1.2 3 4.5a4.07 4.07 0 01-4.2 4.3c-2.6 0-4.5-.6-7.3-.6s-5.3.6-8 .6a3.91 3.91 0 01-4.1-4c0-2.6 1.3-4.2 3-4.2.3 0 .7.1 1.2.1.9 0 1.4-.4 1.4-1.3a4.25 4.25 0 00-.2-1.1 8.78 8.78 0 00-.7-2.3c-.4-.6-1-.6-1.9-.6h-6.7z"></path><path fill="#595959" d="M307.8 31.1c0 2.6 1.3 3.6 6.1 3.6 3.1 0 6.4-1.5 6.4-4.9 0-4.1-4.6-5.7-9.4-5.7-3 0-3.1.1-3.1 2.6zm0-16.2c0 1.5.4 1.5 2.9 1.5 5.2 0 8-1.3 8-4.5s-4.1-4.1-6.6-4.1c-4 0-4.4.8-4.4 3.7v3.4zm-11.3-1.5c0-4-.4-5-1.5-5s-1.8.4-2.8.4c-2.1 0-3.2-2.3-3.2-4.1 0-2.6 1.5-4.7 6.9-4.7 2.8 0 5.3.6 8.4.6 5.3 0 8.8-.6 12.2-.6a18.3 18.3 0 018.8 1.8 9.6 9.6 0 015.2 8.7c0 4.7-3.3 7.9-7.7 8.6v.1c5.9 1.4 9.4 5 9.4 10.8 0 10.3-9.3 12.7-16.6 12.7-3.4 0-6.4-.6-11.4-.6-3.6 0-5.7.6-8.5.6-5.2 0-6.7-2-6.7-4.7 0-1.8 1.1-4.1 3.2-4.1.9 0 1.8.4 2.8.4 1.2 0 1.5-1.2 1.5-5V13.4z"></path><path fill="#595959" d="M349.2 18.3l3.4-6.1c.8-1.4 1.4-2.3 1.4-3.2 0-1.8-2.7-.7-2.7-4.4 0-2.8 1.6-4.5 3.5-4.5 2.5 0 5 .6 7.5.6s4.3-.6 6.8-.6c2.8 0 4.3 2 4.3 4.7 0 1.8-1.1 4.1-3.2 4.1-.9 0-1.7-.3-2.5-.3a1.9 1.9 0 00-1.7.7 29.77 29.77 0 00-2 2.9l-7.6 12c-1.5 2.5-2 3.4-2 4.4v3.6a2 2 0 002.1 2.2c1.2 0 2.4-.4 3.6-.4 2.1 0 3.2 2.3 3.2 4.1 0 2.6-1.5 4.7-4.3 4.7-3.1 0-5.2-.6-8.5-.6-3.1 0-6.2.6-9.3.6-4.6 0-6.1-2-6.1-4.7 0-1.8 1.1-4.1 3.2-4.1 1.2 0 2.4.4 3.6.4 1 0 1.7-.6 1.7-2.3v-2.4c-.1-2.1-.5-2.7-2-5.2l-7.1-11.7a32.57 32.57 0 00-2.2-3.4 2.06 2.06 0 00-1.8-.8c-.9 0-1.6.2-2.5.2-2.1 0-3.2-2.3-3.2-4.1 0-2.6 1.5-4.7 4.6-4.7 2.5 0 5 .6 7.5.6 2.3 0 4.3-.6 6.8-.6 2.8 0 4.1 2.2 4.1 4.9 0 3.3-2.9 2.4-2.9 4.1 0 .7.4 1.5 1.3 3.2zM368.4 34a4.24 4.24 0 013 7.2 4.16 4.16 0 01-3 1.3 3.8 3.8 0 01-3-1.3 4.16 4.16 0 01-1.3-3 4.07 4.07 0 011.2-3 4.47 4.47 0 013.1-1.2m0 8a3.76 3.76 0 10-2.6-1.1 3.47 3.47 0 002.6 1.1m1.8-4.9c0 .5-.3.8-.9 1q.9.15.9.9v.3c0 .2 0 .3.1.3h.2c.2 0 .3.1.3.4a.47.47 0 01-.5.5h-.2a.31.31 0 00-.2-.1.37.37 0 00-.3.1h-.2c-.3 0-.5-.2-.5-.7v-.5c0-.4-.3-.6-.8-.6a.27.27 0 00-.3.3v.1c0 .3.1.4.2.4h.3c.2 0 .3.1.3.4a.47.47 0 01-.5.5h-.4a4.33 4.33 0 01-.5-.1 1.34 1.34 0 00-.5.1h-.5a.47.47 0 01-.5-.5c0-.3.1-.4.3-.4h.4c.1 0 .1-.1.1-.4v-1.8c0-.3-.1-.4-.2-.4h-.4c-.2 0-.3-.1-.3-.4s.1-.5.4-.5h2.6c1.2 0 1.6.3 1.6 1.1m-1.8-.3c-.2 0-.3 0-.4.1a.35.35 0 00-.1.2v.4a.27.27 0 00.3.3c.5 0 .8-.2.8-.5s-.2-.5-.6-.5"></path></svg>