<svg xmlns="http://www.w3.org/2000/svg" viewBox="0 0 109 55" class="crossSiteBanner_child__oCu60"><path d="M.771.993c-.668.575-.78 1.99-.214 2.707.379.48.483.513 1.285.418.581-.068.92-.03 1.014.115.078.12.182 3.72.232 8l.091 7.782.51.438c1.119.962 3.033.354 3.033-.963v-.648l.723.822c1.117 1.269 2.102 1.663 4.182 1.673 1.493.008 1.862-.055 2.741-.467 1.833-.86 3.225-2.776 3.811-5.247.255-1.071.321-3.773.113-4.576-.121-.466-.089-.494.7-.612.455-.068.884-.066.954.004.071.07.169 2.103.219 4.518.103 4.984.161 5.225 1.565 6.46 1.023.9 2.031 1.176 3.928 1.076 1.756-.092 3.115-.628 4.293-1.692l.751-.678v.735c0 1.136.352 1.371 1.831 1.225.672-.066 1.85-.063 2.62.007 1.325.12 1.371.139.866.351-1.556.654-1.938 2.836-.758 4.336.423.538 1.75 1.267 2.666 1.465l.595.129-.595.393c-.861.57-1.38 1.73-4.953 11.073-1.75 4.575-3.318 8.527-3.485 8.782-.383.585-1.025.834-1.784.692-.591-.111-.591-.111-.416-.867.096-.416.14-1.385.099-2.153-.162-2.956-1.985-5.115-5.11-6.049l-.703-.211 1.136-.414c2.938-1.071 4.288-3.911 3.354-7.055-.341-1.148-1.676-2.67-2.951-3.364-1.982-1.078-3.748-1.24-10.579-.969-2.611.104-4.661.089-6.185-.044-3.607-.317-5.525.167-6.098 1.539-.33.789-.319 1.531.036 2.417.433 1.083.938 1.328 2.582 1.256 1.319-.058 1.392-.04 1.615.393.335.654.337 14.42.001 15.078-.218.428-.316.454-1.702.454-1.641 0-2.077.226-2.537 1.312-.602 1.424-.066 2.909 1.3 3.593.653.328 1.001.357 3.54.292 4.696-.119 6.852-.108 10.082.055 4.253.214 6.701-.212 8.88-1.544.487-.298.896-.519.908-.49.369.875.877 1.542 1.385 1.821.583.321.844.338 3.179.199 1.399-.083 3.32-.113 4.269-.066a95.48 95.48 0 0 0 3.487.091l1.762.006.644-.624c1.476-1.432.819-4.048-1.079-4.299-1.644-.218-1.597-.183-1.506-1.128.119-1.241.495-1.917 1.145-2.056.298-.064 1.892-.124 3.54-.135 3.378-.021 3.784.084 4.123 1.071.27.787.299 1.934.051 2.087-.102.063-.652.143-1.223.177-.88.054-1.11.145-1.52.604-.526.589-.802 1.719-.62 2.546.063.286.401.799.752 1.139l.637.618 1.852-.017c1.019-.01 3.038-.019 4.487-.022a1972.62 1972.62 0 0 1 19.529.013c2.042.01 3.021-.066 3.906-.301 2.89-.771 5.043-2.41 5.823-4.433.574-1.488.686-3.859.249-5.249-.607-1.932-2.121-3.377-4.353-4.157l-1.183-.414.931-.304c2.487-.814 3.873-2.699 3.849-5.235l-.01-1.045h.683c.491 0 .814.131 1.149.466.573.573 6.956 10.389 7.316 11.252.311.744.351 3.397.059 3.942-.189.353-.305.369-1.952.26-1.248-.082-1.878-.05-2.189.112-.727.378-1.161 1.136-1.244 2.172-.095 1.184.403 2.046 1.502 2.596.66.332.997.357 3.812.288 4.896-.121 6.571-.109 8.927.06 2.057.148 2.258.133 3.001-.227 1.022-.495 1.502-1.29 1.497-2.482-.005-1.112-.441-1.989-1.178-2.37-.439-.227-.854-.261-1.984-.162-1.748.152-2.236.043-2.511-.561-.294-.646-.268-3.055.042-3.796.329-.788 7.032-10.807 7.528-11.254.313-.281.646-.335 1.938-.313 1.492.025 1.583.004 2.082-.495 1.524-1.524.834-4.191-1.229-4.747-.55-.148-1.192-.146-2.436.008-1.129.14-2.591.161-4.413.064-3.967-.213-4.214-.197-4.751.305-.688.642-.972 1.311-.972 2.289 0 .994.315 1.556 1.101 1.963.873.451.727 1.042-.962 3.906-.822 1.395-1.538 2.536-1.589 2.534-.194-.006-2.91-5.233-2.91-5.6 0-.222.21-.514.5-.694 1.142-.709 1.317-.976 1.317-2.012 0-1.014-.173-1.513-.74-2.138-.329-.363-.321-.365 1.067-.39 2.516-.045 4.487-1.085 6.243-3.296 1.373-1.727 2.47-4.005 4.434-9.211 2.164-5.737 2.084-5.6 3.17-5.428.915.146 1.458-.338 1.578-1.407.204-1.806-.716-2.444-3.075-2.132-.754.099-1.988.113-2.867.031-.85-.079-1.749-.127-1.999-.107-1.175.095-1.736 2.02-.802 2.755.258.203.626.418.817.479a.534.534 0 0 1 .35.507c.002.484-2.182 6.846-2.35 6.846-.065 0-.631-1.56-1.257-3.467-1.213-3.698-1.22-3.826-.247-4.068.781-.195 1.128-.621 1.128-1.385 0-.465-.142-.853-.439-1.198-.424-.493-.483-.507-1.862-.43a47.09 47.09 0 0 1-5.272.007c-1.475-.084-1.929.155-2.224 1.17l-.162.56-.017-.59c-.009-.331-.176-.751-.381-.956-.305-.305-.492-.342-1.136-.227-.838.15-2.144.163-3.876.037-1.815-.132-2.598.605-2.379 2.237.145 1.077.645 1.447 1.759 1.299.792-.105.866-.081.972.315.19.709.134 4.662-.078 5.504-.269 1.068-1.063 1.985-1.949 2.251-.719.215-1.014.182-1.82-.206-.872-.42-.938-.842-.938-6.021 0-4.612-.016-4.84-.37-5.194-.306-.305-.489-.345-1.045-.227-.714.152-1.824.162-4.004.038-1.324-.076-1.336-.073-1.885.542-.47.526-.577.575-.715.327-.379-.675-1.157-1.439-1.93-1.891-.668-.392-1.119-.5-2.347-.565-1.8-.094-2.819.218-3.9 1.194l-.699.631V4.234c0-2.212-.061-2.976-.258-3.246-.238-.325-.51-.353-3.477-.367-3.012-.014-3.247.009-3.659.364-.876.753-.71 2.886.242 3.125.238.059.719.055 1.069-.011.568-.107.655-.069.816.355.099.261.18.991.18 1.622v1.148l-.692-.238c-.527-.182-1.015-.196-2.044-.061-.78.103-2.004.118-2.895.035-.85-.079-1.749-.127-1.999-.107-1.175.095-1.736 2.02-.802 2.755.258.203.626.418.817.479a.534.534 0 0 1 .35.507c.002.484-2.182 6.846-2.35 6.846-.065 0-.631-1.56-1.257-3.467-1.213-3.698-1.22-3.826-.247-4.068.781-.195 1.128-.621 1.128-1.385 0-.465-.142-.853-.439-1.198-.424-.493-.483-.507-1.862-.43a47.09 47.09 0 0 1-5.272.007c-1.475-.084-1.929.155-2.224 1.17l-.162.56-.017-.59c-.009-.331-.176-.751-.381-.956-.305-.305-.492-.342-1.136-.227-.838.15-2.144.163-3.876.037-1.815-.132-2.598.605-2.379 2.237.145 1.077.645 1.447 1.759 1.299.792-.105.866-.081.972.315.19.709.134 4.662-.078 5.504-.269 1.068-1.063 1.985-1.949 2.251-.719.215-1.014.182-1.82-.206-.872-.42-.938-.842-.938-6.021 0-4.612-.016-4.84-.37-5.194-.306-.305-.489-.345-1.045-.227-.714.152-1.824.162-4.004.038-1.304-.075-1.343-.064-1.841.493l-.509.57-.663-.792c-.364-.436-1.048-1.019-1.519-1.297-.784-.46-1.016-.504-2.675-.504-1.987 0-2.799.277-3.724 1.27l-.454.487-.091-3.089C8.125 2.328 8.017.871 7.936.789 7.854.708 6.311.632 4.506.622 1.395.603 1.203.622.771.993m34.781 9.177c.285.223.74.367 1.165.367.836 0 .693-.242 3.077 5.195 2.166 4.939 2.534 5.927 2.534 6.799 0 .619-.128.856-.887 1.644-.771.8-.968.913-1.499.863-.563-.054-.613-.109-.63-.702-.01-.353-.117-.828-.238-1.054-.299-.557-1.259-1.117-1.918-1.118-.538-.001-.538-.002-.142-.28.786-.55.926-2.277.249-3.056-.243-.278-.456-.318-1.228-.227-.753.088-.956.053-1.045-.177-.06-.158-.099-2.345-.085-4.859.013-2.515.06-4.39.103-4.167.043.222.288.57.544.772m51.775 0c.285.223.74.367 1.165.367.836 0 .693-.242 3.077 5.195 2.166 4.939 2.534 5.927 2.534 6.799 0 .619-.128.856-.887 1.644-.771.8-.968.913-1.499.863-.563-.054-.613-.109-.63-.702-.01-.353-.117-.828-.238-1.054-.299-.557-1.259-1.117-1.918-1.118-.538-.001-.538-.002-.142-.28.786-.55.926-2.277.249-3.056-.243-.278-.456-.318-1.228-.227-.753.088-.956.053-1.045-.177-.06-.158-.099-2.345-.085-4.859.013-2.515.06-4.39.103-4.167.043.222.288.57.544.772m-75.189-.452c.832.701 1.152 1.724 1.148 3.669-.005 2.774-.751 3.962-2.484 3.962-.825 0-1.051-.079-1.529-.537-1.51-1.447-1.443-5.484.115-6.954.821-.773 1.929-.83 2.75-.14m51.899.146c.746.746.998 1.626.998 3.489 0 1.791-.231 2.663-.903 3.415-.465.521-.623.581-1.521.581-.864 0-1.08-.074-1.566-.54-.795-.761-1.168-2.156-1.047-3.917.161-2.347 1.088-3.627 2.629-3.627.675 0 .911.1 1.41.599M55.1 20.186c.375.752 2.129.95 2.918.329.348-.273.479-.544.479-.987v-.611l.953.95c1.224 1.219 2.473 1.655 4.379 1.529 1.816-.12 2.984-.67 4.192-1.975 1.574-1.7 2.182-3.724 2.074-6.902l-.068-1.973.783-.117c.431-.065.841-.06.911.01.071.07.169 2.103.219 4.518.103 4.984.161 5.225 1.565 6.46 1.023.9 2.031 1.176 3.928 1.076 1.756-.092 3.115-.628 4.293-1.692l.751-.678v.735c0 1.136.352 1.371 1.831 1.225.672-.066 1.84-.064 2.598.005l1.377.125-.583.293c-1.288.647-1.729 2.121-1.067 3.563.365.795.734 1.17 1.566 1.596l.545.278-.727.139c-.829.159-5.474.207-8.174.085-1.946-.088-2.683.117-3.23.897-.252.359-.259.359-1.146-.068-1.517-.731-2.81-.915-5.889-.839-3.657.09-8.944.09-11.808-.001-2.023-.064-2.365-.029-3.129.316-1.448.655-1.994 2.193-1.337 3.766.413.989.996 1.259 2.429 1.128.671-.062 1.337-.038 1.481.052.409.256.537 2.153.537 7.911 0 5.31-.128 7.582-.445 7.888-.096.093-.809.113-1.625.045-1.445-.12-1.455-.125-1.772-.773-.175-.358-1.577-4.658-3.115-9.556-1.539-4.898-2.934-9.169-3.101-9.492-.424-.819-1.46-1.226-3.533-1.385l-1.711-.131.712-.362c2.762-1.405 4.363-3.977 7.265-11.667 2.149-5.698 2.101-5.613 3.105-5.43.317.058.726.022.909-.081.318-.178.337.028.423 4.66.05 2.666.157 4.979.237 5.141M17.146 33.272c.388.127.939.465 1.226.751.436.436.521.671.521 1.437 0 .816-.074.99-.681 1.597-.831.83-1.865 1.093-4.304 1.093-1.38 0-1.718-.054-1.808-.287-.06-.158-.11-1.088-.11-2.065 0-1.932.275-2.609 1.139-2.8.671-.149 3.263.028 4.017.274m25.994 3.416c.971 4.165.997 4.5.373 4.656-.661.166-3.499.015-3.702-.196-.111-.117.242-1.547.988-3.997 1.285-4.218 1.362-4.44 1.454-4.178.035.099.434 1.771.887 3.715m26.939-3.352c2.201.89 2.25 3.338.085 4.319-1.085.492-4.883.704-5.147.288-.086-.136-.158-1.074-.159-2.085-.003-1.571.05-1.905.364-2.304.202-.256.549-.507.772-.556.806-.178 3.323.03 4.085.338m-53.521 9.966c1.53.36 2.593 1.054 3.045 1.988.484 1.001.479 1.49-.028 2.49-.309.609-.63.918-1.313 1.265-.788.4-1.136.459-2.725.459-2.081 0-2.887-.249-3.283-1.016-.315-.608-.373-4.526-.076-5.082.164-.306.39-.351 1.771-.348.871.001 2.045.111 2.609.244m53.759.273c1.547.596 2.35 1.597 2.35 2.929 0 2.073-1.847 3.233-4.866 3.054-1.581-.094-2.411-.44-2.729-1.139-.276-.606-.29-4.526-.017-5.035.188-.351.321-.368 2.225-.286 1.471.063 2.303.194 3.037.477" fill-rule="evenodd"/></svg>