<svg xmlns="http://www.w3.org/2000/svg" viewBox="0 0 127 39" class="crossSiteBanner_child__oCu60"><path d="M62.537 9.651c-2.439 5.307-4.468 9.741-4.509 9.853-.043.119.47.176 1.252.139l1.325-.064 1.001-2.222 1-2.223h9.013l1.012 2.223 1.011 2.222 1.306.064c1.092.053 1.286.011 1.183-.255C75.616 18.045 67.221 0 67.111 0c-.077 0-2.135 4.343-4.574 9.651M111.418.617c-1.302.591-2.049 1.696-2.157 3.191-.108 1.494.193 2.474 1.143 3.717.396.52.721.98.721 1.023 0 .042-.667.584-1.482 1.204-2.139 1.626-2.963 2.979-2.963 4.867 0 2.161 1.692 4.468 3.787 5.164 2.34.777 4.915.155 6.961-1.682l.999-.897.953 1.232.952 1.232 1.429.008c.786.005 1.429-.042 1.429-.105s-.724-1.014-1.608-2.114l-1.608-1.999 1.178-1.342 1.179-1.343-.803-.783-.802-.783-1.077 1.273-1.077 1.274-2-2.387-2-2.386 1.352-1.231c.743-.678 1.48-1.484 1.637-1.792 1.044-2.043.218-4.397-1.876-5.348-1.136-.516-3.123-.513-4.267.007M0 10.16v9.525h3.137c3.584 0 4.809-.262 6.204-1.328.491-.376 1.121-1.111 1.401-1.635.428-.803.497-1.189.437-2.455-.093-1.948-.861-3.283-2.429-4.224l-1.077-.646.702-.766c1.81-1.975 1.355-5.511-.892-6.936C6.226.898 4.919.635 2.212.635H0v9.525m12.7 0v9.525h10.372v-2.117h-8.044v-7.196h7.832V8.043h-7.832V2.752h8.044V.635H12.7v9.525m12.488 0v9.525h3.127c2.505 0 3.44-.087 4.709-.437 2.963-.817 4.842-2.306 6.085-4.821.787-1.592.79-1.611.786-4.256-.005-3.287-.405-4.48-2.122-6.334C35.547 1.432 33.214.643 28.31.638L25.188.635v9.525m21.59-.025v9.55h3.137c3.585 0 4.811-.263 6.202-1.328 1.167-.896 1.739-2.041 1.844-3.695.071-1.112-.006-1.513-.474-2.47-.576-1.178-1.566-2.104-2.654-2.483l-.623-.217.724-.636c1.062-.933 1.534-2.559 1.203-4.141-.36-1.716-1.062-2.655-2.517-3.367-1.115-.546-1.468-.605-4.032-.68l-2.81-.082v9.549M73.66 1.693v1.059h4.445v16.933h2.54V2.752h4.445V.635H73.66v1.058m12.7 8.467v9.525h2.54v-9.102h9.102v9.102h2.54V.635h-2.54v7.62H88.9V.635h-2.54v9.525m28.829-7.398c.566.566.631.751.53 1.505-.118.881-.739 1.709-1.917 2.555l-.603.434-.52-.612c-.286-.336-.711-1.02-.945-1.52-.36-.77-.388-1.019-.183-1.639.316-.958.938-1.368 2.072-1.368.745 0 1.045.123 1.566.645M5.611 3.056c1.135.475 1.624 1.438 1.534 3.026-.061 1.1-.172 1.422-.667 1.938-.621.648-1.897 1.082-3.185 1.082H2.54v-6.35h1.171c.644 0 1.499.137 1.9.304m26.986.233c3.494 1.042 5.325 3.82 5.009 7.6-.341 4.072-3.024 6.284-8.026 6.618l-1.852.124V2.689l1.852.126c1.019.07 2.376.283 3.017.474m19.793-.233c2.111.882 2.124 4.58.021 5.591-.328.158-1.158.338-1.845.4l-1.248.113V2.752h1.171c.644 0 1.499.137 1.901.304m16.464 5.887 1.603 3.651-1.679.062c-.924.033-2.428.033-3.343 0l-1.664-.062 1.596-3.651c.877-2.008 1.66-3.651 1.74-3.651.08 0 .866 1.643 1.747 3.651m45.983 3.978 2.068 2.55-.713.734c-.935.966-2.613 1.787-3.651 1.787-2.509 0-4.352-2.964-3.101-4.988.386-.625 2.812-2.632 3.182-2.632.081 0 1.078 1.147 2.215 2.549M7.09 11.561c1.233.64 1.694 1.381 1.694 2.726 0 2.172-1.519 3.281-4.49 3.281H2.54V10.955l1.863.089c1.319.063 2.103.214 2.687.517m46.778 0c1.246.646 1.697 1.381 1.683 2.742-.021 2.171-1.245 3.098-4.266 3.23l-1.967.086v-6.664l1.863.089c1.319.063 2.103.214 2.687.517m68.113 11.14c-.619.677-.775 1.363-.474 2.09.26.627 1.147 1.244 1.789 1.244 1.213 0 2.245-1.472 1.819-2.594-.464-1.22-2.298-1.653-3.134-.74m2.345.174c1.15.905.455 2.737-1.038 2.737-.958 0-1.58-.619-1.58-1.572 0-.821.775-1.603 1.588-1.603.259 0 .723.197 1.03.438m-1.771 1.267c0 .66.081 1.021.212.94.116-.071.215-.339.219-.594.007-.433.043-.421.528.171.499.608.726.543.323-.093-.132-.208-.086-.384.143-.552.558-.407.173-.942-.678-.942h-.747v1.07m1.217-.594c-.133.4-.794.457-.794.068 0-.196.181-.333.441-.333.259 0 .405.11.353.265m-71.702.494c-3.192.649-6.315 2.631-7.307 4.639-.577 1.167-.587 3.896-.018 5.041 1.513 3.046 5.872 4.917 11.347 4.868 4.317-.037 7.389-1.08 9.559-3.245 2.437-2.432 2.496-5.568.153-8.132-1.184-1.296-3.187-2.411-5.373-2.99-1.838-.487-6.374-.586-8.361-.181M.05 31.168l.056 7.25 4.762-.005c5.423-.006 6.622-.223 7.904-1.432.847-.799 1.284-2.122 1.073-3.248-.17-.908-1.107-2.04-1.991-2.406-.793-.329-.792-.439.009-.895 1.269-.722 1.657-3.27.695-4.558-1.212-1.624-2.587-1.948-8.275-1.952l-4.289-.004.056 7.25m14.767.056v7.306l5.979-.056 5.98-.056.061-1.958.061-1.958h-5.731V33.02h5.096l-.061-1.852-.061-1.852-2.487-.06-2.487-.059v-1.244l2.698-.06 2.699-.059.061-1.958.061-1.958H14.817v7.306m12.19-7.062c.083.134 1.613 2.002 3.4 4.151l3.248 3.908V38.534l3.44-.058 3.439-.058.106-3.218.106-3.218 2.963-3.644c1.63-2.004 3.088-3.819 3.24-4.032.265-.372.114-.388-3.722-.388h-3.999l-1.072 1.926-1.071 1.926-.84-1.449a79.483 79.483 0 0 1-1.087-1.926c-.244-.469-.313-.477-4.275-.477-2.984 0-3.987.063-3.876.244m41.411 7.006.056 7.25h7.832l.106-3.582.105-3.582 3.387 3.633 3.387 3.634 3.863.001 3.863.001V23.918h-7.822l-.058 3.682-.058 3.682-3.362-3.682-3.362-3.682h-7.992l.055 7.25m23.919 0 .055 7.25 9.314-.008c7.83-.006 9.696-.066 11.717-.381 6.773-1.053 10.46-3.437 10.434-6.747-.009-1.147-.602-2.587-1.357-3.292-.891-.833-3.012-1.969-4.633-2.481-3.845-1.215-8.048-1.586-18.016-1.588l-7.57-.003.056 7.25M7.578 27.771c.389.389.302 1.187-.156 1.432-.225.12-.749.219-1.164.219-.753 0-.755-.002-.755-.953v-.952h.91c.501 0 1.025.114 1.165.254M58.212 29c.964.492 1.478 1.342 1.478 2.443 0 1.602-2.067 2.806-4.405 2.567-1.521-.156-2.568-.738-3.071-1.707-.353-.679-.378-.913-.175-1.592.443-1.476 1.61-2.133 3.797-2.135 1.129-.001 1.766.113 2.376.424m52.106.274c2.484 1.215 2.126 3.418-.693 4.265-.63.189-2.075.403-3.21.474l-2.063.129v-5.62l2.402.092c2.065.079 2.565.171 3.564.66M7.996 32.926c.263.184.471.553.471.835 0 .712-.758 1.164-1.952 1.164H5.503v-2.328h1.012c.572 0 1.215.143 1.481.329" fill-rule="evenodd"/></svg>